<?xml version="1.0" encoding="utf-8"?>
<!-- Generator: Adobe Illustrator 23.0.3, SVG Export Plug-In . SVG Version: 6.00 Build 0)  -->
<svg version="1.1" id="Layer_1" xmlns="http://www.w3.org/2000/svg" xmlns:xlink="http://www.w3.org/1999/xlink" x="0px" y="0px"
	 viewBox="0 0 333.4 333.4" style="enable-background:new 0 0 333.4 333.4;" xml:space="preserve">
<style type="text/css">
	.st0{fill:none;stroke:#486EB4;stroke-width:15;stroke-miterlimit:10;}
	.st1{fill:none;stroke:#B54185;stroke-width:15;stroke-miterlimit:10;}
	.st2{fill:none;stroke:#1AAFDE;stroke-width:15;stroke-miterlimit:10;}
	.st3{fill:none;stroke:#157CBA;stroke-width:15;stroke-miterlimit:10;}
	.st4{fill:none;stroke:#2DAF4B;stroke-width:15;stroke-miterlimit:10;}
	.st5{fill:none;stroke:#EF4D44;stroke-width:15;stroke-miterlimit:10;}
	.st6{fill:none;stroke:#EB4943;stroke-width:15;stroke-miterlimit:10;}
	.st7{fill:none;stroke:#20B6E9;stroke-width:15;stroke-miterlimit:10;}
	.st8{fill:none;stroke:#F4E028;stroke-width:15;stroke-miterlimit:10;}
	.st9{fill:none;stroke:#33445A;stroke-width:15;stroke-miterlimit:10;}
	.st10{fill:none;stroke:#2790CF;stroke-width:15;stroke-miterlimit:10;}
	.st11{fill:none;stroke:#39AAE0;stroke-width:15;stroke-miterlimit:10;}
	.st12{fill:#FFFFFF;}
	.st13{fill:#486EB4;}
	.st14{fill:#B54185;}
	.st15{fill:#2DAF4B;}
	.st16{fill:#EB4943;}
	.st17{fill:#157CBA;}
	.st18{fill:#1AAFDE;}
	.st19{fill:#EF4D44;}
	.st20{fill:#33445A;}
	.st21{fill:#20B6E9;}
	.st22{fill:#F4E028;}
	.st23{fill:#2790CF;}
	.st24{fill:#39AAE0;}
	.st25{fill:none;stroke:url(#SVGID_1_);stroke-width:15;stroke-miterlimit:10;}
	.st26{fill:none;stroke:url(#SVGID_2_);stroke-width:15;stroke-miterlimit:10;}
	.st27{fill:none;stroke:url(#SVGID_3_);stroke-width:15;stroke-miterlimit:10;}
	.st28{fill:none;stroke:url(#SVGID_4_);stroke-width:15;stroke-miterlimit:10;}
	.st29{fill:none;stroke:url(#SVGID_5_);stroke-width:15;stroke-miterlimit:10;}
	.st30{fill:none;stroke:url(#SVGID_6_);stroke-width:15;stroke-miterlimit:10;}
	.st31{fill:none;stroke:url(#SVGID_7_);stroke-width:15;stroke-miterlimit:10;}
	.st32{fill:none;stroke:url(#SVGID_8_);stroke-width:15;stroke-miterlimit:10;}
	.st33{fill:none;stroke:url(#SVGID_9_);stroke-width:15;stroke-miterlimit:10;}
	.st34{fill:none;stroke:url(#SVGID_10_);stroke-width:15;stroke-miterlimit:10;}
	.st35{fill:none;stroke:url(#SVGID_11_);stroke-width:15;stroke-miterlimit:10;}
	.st36{fill:none;stroke:url(#SVGID_12_);stroke-width:15;stroke-miterlimit:10;}
	.st37{fill:url(#SVGID_13_);}
	.st38{fill:url(#SVGID_14_);}
	.st39{fill:url(#XMLID_14_);}
	.st40{fill:url(#SVGID_15_);}
	.st41{fill:url(#SVGID_16_);}
	.st42{fill:url(#SVGID_17_);}
	.st43{fill:url(#SVGID_18_);}
	.st44{fill:url(#SVGID_19_);}
	.st45{fill:url(#SVGID_20_);}
	.st46{fill:url(#SVGID_21_);}
	.st47{fill:url(#SVGID_22_);}
	.st48{fill:url(#SVGID_23_);}
	.st49{fill:url(#SVGID_24_);}
	.st50{fill:url(#SVGID_25_);}
	.st51{fill:url(#SVGID_26_);}
	.st52{fill:url(#SVGID_27_);}
	.st53{fill:url(#SVGID_28_);}
	.st54{fill:url(#SVGID_29_);}
	.st55{fill:url(#SVGID_30_);}
	.st56{fill:url(#SVGID_31_);}
	.st57{fill:url(#SVGID_32_);}
	.st58{fill:url(#SVGID_33_);}
	.st59{fill:url(#SVGID_34_);}
	.st60{fill:url(#SVGID_35_);}
</style>
<path class="st22" d="M15.1,86.9c0,0,2.7-70.7,80.4-68.4s208.6-0.8,221.7,76.6C330.4,172.5,233,318,154.3,317.7
	C86.5,317.5,10.9,191.8,15.1,86.9z"/>
<g>
	<g>
		<g>
			<path class="st12" d="M251.4,188.8c-23.6-3.9-34.2-28-34.6-29.1c0-0.1-0.1-0.1-0.1-0.2c-1.2-2.4-1.5-4.5-0.8-6
				c1.3-3,6.2-4.6,9.5-5.6c0.9-0.3,1.8-0.6,2.6-0.9c3.2-1.3,5.5-2.6,7-4.2c1.8-1.9,2.2-3.6,2.1-4.8c-0.1-2.8-2.2-5.3-5.7-6.6
				c-1.2-0.5-2.5-0.7-3.8-0.7c-0.9,0-2.3,0.1-3.6,0.7c-2.8,1.3-5.2,2-7.4,2.1c-1.1-0.1-1.9-0.3-2.4-0.5c0.1-1.1,0.1-2.2,0.2-3.4
				l0-0.5c0.8-11.9,1.7-26.8-2.2-35.6c-2.7-6-6.3-11.2-10.8-15.4c-3.7-3.5-8.1-6.4-12.9-8.5c-8.4-3.7-16.2-4.3-20.1-4.3h0
				c-0.2,0-0.3,0-0.4,0c-1.1,0-2.9,0-3,0c-3.9,0-11.8,0.6-20.2,4.3c-4.8,2.1-9.1,5-12.9,8.5c-4.4,4.2-8.1,9.4-10.8,15.4
				c-3.9,8.8-3,23.7-2.3,35.6v0c0.1,1.3,0.2,2.6,0.2,3.9c-0.6,0.3-1.5,0.5-2.9,0.5c-2.2,0-4.9-0.7-7.9-2.1c-0.9-0.4-1.9-0.6-3-0.6
				c-1.8,0-3.7,0.5-5.3,1.5c-2.1,1.2-3.4,2.9-3.7,4.8c-0.2,1.2-0.2,3.7,2.5,6.2c1.5,1.4,3.7,2.6,6.6,3.8c0.7,0.3,1.6,0.6,2.6,0.9
				c3.3,1,8.2,2.6,9.5,5.6c0.7,1.5,0.4,3.6-0.8,6c0,0.1-0.1,0.1-0.1,0.2c-0.3,0.7-3.1,7-8.9,13.7c-3.3,3.8-6.9,7-10.7,9.5
				c-4.7,3-9.7,5-15.1,5.9c-2.1,0.3-3.6,2.2-3.5,4.3c0,0.6,0.2,1.2,0.4,1.8v0c0.8,2,2.8,3.6,6,5.1c3.9,1.8,9.7,3.3,17.3,4.5
				c0.4,0.7,0.8,2.5,1.1,3.8c0.3,1.3,0.6,2.7,1,4.1c0.5,1.6,1.7,3.4,4.7,3.4c1.2,0,2.5-0.3,4.1-0.6c2.3-0.4,5.4-1,9.3-1
				c2.2,0,4.4,0.2,6.6,0.6c4.3,0.7,8,3.3,12.4,6.4c6.3,4.5,13.5,9.5,24.4,9.5c0.3,0,0.6,0,0.9,0c0.4,0,0.8,0,1.3,0
				c10.9,0,18.1-5,24.4-9.5l0,0c4.3-3,8-5.7,12.4-6.4c2.2-0.4,4.5-0.6,6.6-0.6c3.7,0,6.6,0.5,9.3,1c1.7,0.3,3,0.5,4.1,0.5h0.1h0.1
				c2.2,0,3.9-1.2,4.5-3.4c0.4-1.4,0.7-2.7,1-4.1c0.3-1.2,0.7-3,1-3.8c7.6-1.2,13.4-2.7,17.3-4.5c3.2-1.5,5.1-3.1,6-5.1
				c0.3-0.6,0.4-1.2,0.4-1.8C255,191,253.5,189.1,251.4,188.8z"/>
		</g>
	</g>
</g>
</svg>
